<?xml version="1.0" encoding="utf-8"?>
<!-- Generator: Adobe Illustrator 26.3.0, SVG Export Plug-In . SVG Version: 6.00 Build 0)  -->
<svg version="1.1" id="Layer_1" xmlns="http://www.w3.org/2000/svg" xmlns:xlink="http://www.w3.org/1999/xlink" x="0px" y="0px"
	 viewBox="0 0 36 36" style="enable-background:new 0 0 36 36;" xml:space="preserve">
<style type="text/css">
	.st0{fill:#FFFFFF;}
</style>
<g id="i_c_o_n_s">
	<path class="st0" d="M34,18c0-8.8-7.2-16-16-16C9.2,2,2,9.2,2,18c0,7.9,5.7,14.6,13.5,15.8V22.6h-4.1V18h4.1v-3.5
		c0-4,2.4-6.2,6-6.2c1.2,0,2.4,0.1,3.6,0.3v3.9h-2c-1.3-0.2-2.4,0.7-2.6,2c0,0.2,0,0.3,0,0.5v3h4.4l-0.7,4.6h-3.7v11.2
		C28.3,32.6,34,25.9,34,18z"/>
</g>
</svg>
