<?xml version="1.0" encoding="utf-8"?>
<!-- Generator: Adobe Illustrator 26.3.0, SVG Export Plug-In . SVG Version: 6.00 Build 0)  -->
<svg version="1.1" id="S_Instagram_18_N_D_2x" xmlns="http://www.w3.org/2000/svg" xmlns:xlink="http://www.w3.org/1999/xlink"
	 x="0px" y="0px" viewBox="0 0 36 36" style="enable-background:new 0 0 36 36;" xml:space="preserve">
<style type="text/css">
	.st0{fill:#FFFFFF;}
</style>
<path class="st0" d="M18,4.9c4.3,0,4.8,0,6.5,0.1c1,0,2,0.2,3,0.6c0.7,0.3,1.3,0.7,1.8,1.2s0.9,1.1,1.2,1.8c0.4,1,0.5,2,0.6,3
	c0.1,1.7,0.1,2.2,0.1,6.5s0,4.8-0.1,6.5c0,1-0.2,2-0.6,3c-0.5,1.4-1.6,2.5-3,3c-1,0.4-2,0.5-3,0.6c-1.7,0.1-2.2,0.1-6.5,0.1
	s-4.8,0-6.5-0.1c-1,0-2-0.2-3-0.6c-1.4-0.5-2.5-1.6-3-3c-0.4-1-0.5-2-0.6-3c-0.1-1.7-0.1-2.2-0.1-6.5s0-4.8,0.1-6.5c0-1,0.2-2,0.6-3
	c0.3-0.7,0.7-1.3,1.2-1.8s1.1-0.9,1.8-1.2c1-0.4,2-0.5,3-0.6C13.2,4.9,13.7,4.9,18,4.9z M18,2c-4.3,0-4.9,0-6.6,0.1
	c-1.3,0-2.6,0.3-3.9,0.7C5.4,3.7,3.7,5.4,2.8,7.5c-0.5,1.2-0.7,2.6-0.7,3.9C2,13.1,2,13.7,2,18s0,4.9,0.1,6.6c0,1.3,0.3,2.6,0.7,3.9
	c0.8,2.1,2.5,3.8,4.7,4.7c1.2,0.5,2.6,0.7,3.9,0.7C13.1,34,13.7,34,18,34s4.9,0,6.6-0.1c1.3,0,2.6-0.3,3.9-0.7
	c2.1-0.8,3.8-2.5,4.7-4.7c0.5-1.2,0.7-2.6,0.7-3.9C34,22.9,34,22.3,34,18s0-4.9-0.1-6.6c0-1.3-0.3-2.6-0.7-3.9
	c-0.8-2.1-2.5-3.8-4.7-4.7c-1.2-0.5-2.6-0.7-3.9-0.7C22.9,2,22.3,2,18,2z"/>
<path class="st0" d="M18,9.8c-4.5,0-8.2,3.7-8.2,8.2s3.7,8.2,8.2,8.2s8.2-3.7,8.2-8.2S22.5,9.8,18,9.8L18,9.8z M18,23.3
	c-2.9,0-5.3-2.4-5.3-5.3s2.4-5.3,5.3-5.3s5.3,2.4,5.3,5.3S20.9,23.3,18,23.3L18,23.3z"/>
<circle class="st0" cx="26.5" cy="9.5" r="1.9"/>
</svg>
