<?xml version="1.0" encoding="utf-8"?>
<!-- Generator: Adobe Illustrator 26.3.0, SVG Export Plug-In . SVG Version: 6.00 Build 0)  -->
<svg version="1.1" id="Layer_1" xmlns="http://www.w3.org/2000/svg" xmlns:xlink="http://www.w3.org/1999/xlink" x="0px" y="0px"
	 viewBox="0 0 36 36" style="enable-background:new 0 0 36 36;" xml:space="preserve">
<style type="text/css">
	.st0{fill:#FFFFFF;}
</style>
<g id="i_c_o_n_s">
	<path class="st0" d="M35.1,7.5c-1.3,0.6-2.6,0.9-4,1.1c1.5-0.9,2.5-2.2,3.1-3.9c-1.4,0.8-2.9,1.4-4.4,1.7c-2.6-2.8-7.1-2.9-9.9-0.3
		c-1.8,1.7-2.6,4.2-2,6.7C12.2,12.5,7,9.9,3.4,5.5c-1.9,3.2-0.9,7.3,2.2,9.3c-1.1,0-2.2-0.3-3.2-0.9V14c0,3.3,2.3,6.2,5.6,6.8
		c-1,0.3-2.1,0.3-3.2,0.1c0.9,2.8,3.5,4.8,6.5,4.8c-2.9,2.3-6.6,3.3-10.3,2.9c3.2,2,6.9,3.1,10.7,3.1c12.8,0,19.8-10.6,19.8-19.8
		c0-0.3,0-0.6,0-0.9C33,10.1,34.1,8.9,35.1,7.5z"/>
</g>
</svg>
