<?xml version="1.0" encoding="utf-8"?>
<!-- Generator: Adobe Illustrator 26.3.0, SVG Export Plug-In . SVG Version: 6.00 Build 0)  -->
<svg version="1.1" id="S_YouTube_18_N_D_2x" xmlns="http://www.w3.org/2000/svg" xmlns:xlink="http://www.w3.org/1999/xlink"
	 x="0px" y="0px" viewBox="0 0 36 36" style="enable-background:new 0 0 36 36;" xml:space="preserve">
<style type="text/css">
	.st0{fill:#FFFFFF;}
</style>
<path class="st0" d="M35.5,9.9c-0.2-1.3-0.7-2.5-1.4-3.6c-0.9-1-2.2-1.5-3.6-1.5C25.5,4.4,18,4.4,18,4.4h0c0,0-7.5,0-12.5,0.4
	c-1.3,0-2.6,0.6-3.6,1.5c-0.8,1-1.3,2.3-1.4,3.6c-0.2,1.9-0.3,3.9-0.4,5.8v2.7c0,1.9,0.1,3.9,0.4,5.8c0.2,1.3,0.7,2.5,1.4,3.6
	c1.1,1,2.5,1.5,3.9,1.5C8.7,29.5,18,29.6,18,29.6s7.5,0,12.5-0.4c1.3,0,2.6-0.6,3.6-1.5c0.8-1,1.3-2.3,1.4-3.6
	c0.2-1.9,0.3-3.9,0.4-5.8v-2.7C35.9,13.7,35.8,11.8,35.5,9.9z M14,22.2V11.6l10.6,5.3L14,22.2z"/>
</svg>
